<?xml version="1.0" encoding="UTF-8" standalone="no"?>
<!-- Created with Inkscape (http://www.inkscape.org/) -->

<svg
   width="24"
   height="24"
   viewBox="0 0 6.3499999 6.3499999"
   version="1.1"
   id="svg1"
   xml:space="preserve"
   sodipodi:docname="settings.svg"
   inkscape:version="1.4 (86a8ad7, 2024-10-11)"
   xmlns:inkscape="http://www.inkscape.org/namespaces/inkscape"
   xmlns:sodipodi="http://sodipodi.sourceforge.net/DTD/sodipodi-0.dtd"
   xmlns="http://www.w3.org/2000/svg"
   xmlns:svg="http://www.w3.org/2000/svg"><sodipodi:namedview
     id="namedview1"
     pagecolor="#505050"
     bordercolor="#ffffff"
     borderopacity="1"
     inkscape:showpageshadow="0"
     inkscape:pageopacity="0"
     inkscape:pagecheckerboard="1"
     inkscape:deskcolor="#505050"
     inkscape:document-units="mm"
     inkscape:zoom="32"
     inkscape:cx="16.046875"
     inkscape:cy="8.734375"
     inkscape:window-width="3440"
     inkscape:window-height="1377"
     inkscape:window-x="-8"
     inkscape:window-y="-8"
     inkscape:window-maximized="1"
     inkscape:current-layer="layer1"
     showgrid="false"
     showguides="true" /><defs
     id="defs1"><inkscape:path-effect
       effect="fillet_chamfer"
       id="path-effect3"
       is_visible="true"
       lpeversion="1"
       nodesatellites_param="F,0,1,1,0,0.37568261,0,1 @ F,0,0,1,0,0,0,1 @ F,0,0,1,0,0,0,1 @ F,0,1,1,0,0.37568261,0,1 @ F,0,1,1,0,0.37568261,0,1 @ F,0,0,1,0,0,0,1 @ F,0,0,1,0,0,0,1 @ F,0,1,1,0,0.37568261,0,1 @ F,0,1,1,0,0.37568261,0,1 @ F,0,0,1,0,0,0,1 @ F,0,0,1,0,0,0,1 @ F,0,1,1,0,0.37568261,0,1 @ F,0,1,1,0,0.37568261,0,1 @ F,0,0,1,0,0,0,1 @ F,0,0,1,0,0,0,1 @ F,0,1,1,0,0.37568261,0,1 @ F,0,1,1,0,0.37568261,0,1 @ F,0,0,1,0,0,0,1 @ F,0,0,1,0,0,0,1 @ F,0,1,1,0,0.37568261,0,1 @ F,0,1,1,0,0.37568261,0,1 @ F,0,0,1,0,0,0,1 @ F,0,0,1,0,0,0,1 @ F,0,0,1,0,0.37568261,0,1"
       radius="0"
       unit="px"
       method="auto"
       mode="F"
       chamfer_steps="1"
       flexible="false"
       use_knot_distance="true"
       apply_no_radius="true"
       apply_with_radius="true"
       only_selected="false"
       hide_knots="false" /><inkscape:perspective
       sodipodi:type="inkscape:persp3d"
       inkscape:vp_x="0 : 3.175 : 1"
       inkscape:vp_y="-1.8369095e-13 : 1000 : 0"
       inkscape:vp_z="6.3499999 : 3.175 : 1"
       inkscape:persp3d-origin="3.175 : 2.1166666 : 1"
       id="perspective1" /></defs><g
     inkscape:label="Layer 1"
     inkscape:groupmode="layer"
     id="layer1"><path
       style="fill:none;stroke:#ffffff;stroke-width:0.6;stroke-linecap:round;stroke-linejoin:round;stroke-dasharray:none;stroke-opacity:1;paint-order:markers stroke fill"
       d="M 2.4039475,0.7173195 2.3416644,1.2663927 1.9384374,1.4993682 1.4320566,1.2787209 A 0.42065145,0.42065145 161.77644 0 0 0.89975969,1.4539737 L 0.54682983,2.0650571 a 0.42067572,0.42067572 78.242182 0 0 0.1141996,0.5486602 L 1.105102,2.9420244 V 3.4079756 L 0.66102943,3.7362827 A 0.42067573,0.42067573 101.75782 0 0 0.54682983,4.2849429 L 0.89975969,4.8960263 A 0.42065141,0.42065141 18.223557 0 0 1.4320565,5.0712791 l 0.5063809,-0.2206474 0.403227,0.2329755 0.062283,0.5490732 A 0.42070672,0.42070672 41.764211 0 0 2.8219734,6.0059691 H 3.5280262 A 0.4198953,0.4198953 138.18083 0 0 3.9453359,5.6325998 L 4.0065433,5.0836072 4.4115624,4.8506318 4.9179431,5.0712791 A 0.42065153,0.42065153 161.77645 0 0 5.4502401,4.8960263 L 5.8031701,4.284943 A 0.42067561,0.42067561 78.242187 0 0 5.6889706,3.7362828 L 5.2448978,3.4079756 5.2448977,2.9420244 5.6889703,2.6137173 A 0.42067574,0.42067574 101.75782 0 0 5.8031699,2.065057 L 5.4502401,1.4539738 A 0.42065143,0.42065143 18.223561 0 0 4.9179432,1.2787209 L 4.4115624,1.4993682 4.0065433,1.2663927 3.945336,0.71740006 A 0.41989525,0.41989525 41.819174 0 0 3.5280263,0.34403079 H 2.8219735 A 0.42070676,0.42070676 138.23579 0 0 2.4039475,0.7173195 Z"
       id="path2"
       sodipodi:nodetypes="ccccccccccccccccccccccccc" /><circle
       style="fill:none;stroke:#ffffff;stroke-width:0.6;stroke-linecap:round;stroke-linejoin:round;stroke-dasharray:none;stroke-opacity:1;paint-order:markers stroke fill"
       id="path3"
       cx="3.175"
       cy="3.175"
       r="0.86870861" /></g></svg>
